<svg xmlns="http://www.w3.org/2000/svg" xmlns:xlink="http://www.w3.org/1999/xlink" version="1.1" width="256" height="256" viewBox="0 0 256 256" xml:space="preserve">

<defs>
</defs>
<g style="stroke: none; stroke-width: 0; stroke-dasharray: none; stroke-linecap: butt; stroke-linejoin: miter; stroke-miterlimit: 10; fill: none; fill-rule: nonzero; opacity: 1;" transform="translate(1.4065934065934016 1.4065934065934016) scale(2.81 2.81)" >
	<path d="M 80.773 90 c 3.294 0 6.466 -1.814 8.047 -4.958 c 2.234 -4.44 0.445 -9.85 -3.995 -12.084 L 29.243 45 l 55.581 -27.959 c 4.44 -2.233 6.229 -7.644 3.995 -12.084 c -2.234 -4.439 -7.643 -6.228 -12.084 -3.995 L 5.172 36.96 C 2.133 38.488 0.216 41.599 0.216 45 s 1.917 6.511 4.956 8.04 l 71.564 35.998 C 78.033 89.691 79.413 90 80.773 90 z" style="stroke: none; stroke-width: 1; stroke-dasharray: none; stroke-linecap: butt; stroke-linejoin: miter; stroke-miterlimit: 10; fill: rgb(0,0,0); fill-rule: nonzero; opacity: 1;" transform=" matrix(1 0 0 1 0 0) " stroke-linecap="round" />
</g>
</svg>